<?xml version="1.0" encoding="UTF-8"?>
<svg id="Capa_1" data-name="Capa 1" xmlns="http://www.w3.org/2000/svg" viewBox="0 0 310.35 95.55">
  <defs>
    <style>
      .cls-1 {
        fill: #e0e1ef;
        stroke-width: 0px;
      }
    </style>
  </defs>
  <path class="cls-1" d="M110.03,33.31c-1.07,0-2.08.28-2.96.83-2.58-1.52-5.47-2.29-8.59-2.29s-6.04.78-8.64,2.32c-2.57,1.52-4.65,3.6-6.19,6.17-1.55,2.6-2.34,5.51-2.34,8.65v8.11c0,3.14.79,6.05,2.34,8.65,1.53,2.57,3.61,4.65,6.18,6.18,2.6,1.55,5.51,2.34,8.65,2.34s6-.77,8.58-2.3c.88.55,1.89.84,2.96.84,1.53,0,2.9-.58,3.98-1.67,1.06-1.08,1.61-2.45,1.61-3.96v-28.28c0-1.52-.56-2.89-1.63-3.96-1.07-1.07-2.44-1.63-3.96-1.63ZM98.48,43.07c1.66,0,2.98.55,4.17,1.75,1.19,1.19,1.75,2.52,1.75,4.17v8.11c0,1.68-.55,3-1.74,4.18-1.19,1.18-2.52,1.73-4.18,1.73s-3.02-.55-4.21-1.73c-1.19-1.18-1.74-2.51-1.74-4.18v-8.11c0-1.66.55-2.98,1.75-4.17,1.19-1.19,2.53-1.75,4.21-1.75Z"/>
  <path class="cls-1" d="M148.19,33.89h0c-1.1-.78-2.42-1.33-3.94-1.63-4.57-.92-8.76-.29-12.47,1.88-.88-.54-1.89-.82-2.96-.82-1.51,0-2.88.56-3.96,1.62-1.09,1.07-1.66,2.44-1.66,3.97v28.28c0,1.52.57,2.89,1.65,3.98,1.08,1.08,2.45,1.65,3.97,1.65s2.89-.57,3.98-1.65c1.08-1.08,1.65-2.45,1.65-3.97v-18.2c0-1.66.55-2.99,1.74-4.18,1.18-1.19,2.51-1.74,4.18-1.74.82,0,1.56.15,2.34.49.69.28,1.41.43,2.14.43,1.53,0,2.91-.58,3.99-1.68,1.07-1.09,1.63-2.45,1.63-3.94,0-1.84-.81-3.42-2.28-4.47Z"/>
  <path class="cls-1" d="M178.26,34.17c-2.6-1.54-5.51-2.32-8.64-2.32-2.09,0-4.09.35-5.95,1.04v-8.59c0-1.52-.56-2.89-1.63-3.96-1.07-1.07-2.44-1.63-3.96-1.63s-2.88.56-3.96,1.62c-1.09,1.07-1.67,2.44-1.67,3.97v42.88c0,1.52.57,2.9,1.65,3.98,1.08,1.08,2.45,1.65,3.97,1.65,1.08,0,2.08-.29,2.97-.85,2.58,1.54,5.46,2.31,8.57,2.31s6.05-.79,8.65-2.34c2.57-1.53,4.64-3.61,6.17-6.19,1.54-2.6,2.32-5.5,2.32-8.64v-8.11c0-3.13-.78-6.04-2.32-8.64-1.53-2.57-3.6-4.65-6.17-6.17ZM169.62,63.02c-1.68,0-3.02-.55-4.21-1.73-1.19-1.18-1.74-2.51-1.74-4.18v-8.11c0-1.66.55-2.98,1.75-4.17,1.19-1.19,2.53-1.75,4.21-1.75s2.98.55,4.17,1.75c1.19,1.19,1.75,2.52,1.75,4.17v8.11c0,1.67-.55,3-1.74,4.18-1.19,1.18-2.52,1.74-4.18,1.74Z"/>
  <path class="cls-1" d="M216.51,34.17c-2.6-1.54-5.51-2.32-8.64-2.32s-6.04.78-8.64,2.32c-2.57,1.52-4.65,3.6-6.19,6.17-1.55,2.6-2.34,5.51-2.34,8.65v8.11c0,3.14.79,6.05,2.34,8.65,1.53,2.57,3.61,4.65,6.18,6.18,2.6,1.55,5.51,2.34,8.65,2.34s6.05-.79,8.65-2.34c2.57-1.53,4.65-3.62,6.17-6.19,1.54-2.6,2.32-5.5,2.32-8.64v-8.11c0-3.14-.78-6.04-2.32-8.64-1.52-2.57-3.6-4.65-6.17-6.17ZM207.87,63.02c-1.68,0-3.02-.55-4.21-1.73-1.19-1.18-1.74-2.51-1.74-4.18v-8.11c0-1.66.55-2.98,1.75-4.17,1.19-1.19,2.53-1.75,4.21-1.75s2.98.55,4.17,1.75c1.19,1.19,1.75,2.52,1.75,4.17v8.11c0,1.67-.55,3-1.74,4.18-1.19,1.18-2.52,1.74-4.18,1.74Z"/>
  <path class="cls-1" d="M254.59,33.89h0c-1.1-.78-2.42-1.33-3.94-1.63-4.57-.92-8.76-.29-12.47,1.88-.88-.54-1.89-.82-2.96-.82-1.51,0-2.88.56-3.96,1.62-1.09,1.07-1.66,2.44-1.66,3.97v28.28c0,1.52.57,2.89,1.65,3.98,1.08,1.08,2.45,1.65,3.97,1.65s2.89-.57,3.98-1.65c1.08-1.08,1.65-2.45,1.65-3.97v-18.2c0-1.66.55-2.99,1.74-4.18,1.18-1.19,2.51-1.74,4.18-1.74.82,0,1.56.15,2.34.49.69.28,1.41.43,2.14.43,1.53,0,2.91-.58,3.99-1.68,1.07-1.09,1.63-2.45,1.63-3.94,0-1.84-.81-3.42-2.28-4.47Z"/>
  <path class="cls-1" d="M264.13,18.71c-1.51,0-2.88.56-3.96,1.62-1.09,1.07-1.66,2.44-1.66,3.97v42.98c0,1.52.57,2.89,1.65,3.97,1.08,1.08,2.45,1.65,3.97,1.65s2.9-.58,3.98-1.67c1.06-1.08,1.61-2.45,1.61-3.96V24.3c0-1.52-.56-2.89-1.63-3.96-1.07-1.07-2.44-1.63-3.96-1.63Z"/>
  <path class="cls-1" d="M308.71,34.98h0c-1.07-1.07-2.44-1.63-3.96-1.63s-2.88.56-3.96,1.62c-1.09,1.07-1.66,2.44-1.66,3.97v18.17c-.02,1.68-.57,3-1.75,4.16-1.19,1.19-2.52,1.75-4.17,1.75s-3.02-.55-4.21-1.74c-1.19-1.18-1.74-2.51-1.74-4.18v-18.16c0-1.52-.56-2.89-1.63-3.96-1.07-1.07-2.44-1.63-3.96-1.63s-2.88.56-3.96,1.62c-1.09,1.07-1.67,2.44-1.67,3.97v18.16c0,3.14.79,6.05,2.34,8.65,1.53,2.57,3.61,4.65,6.18,6.18,2.6,1.55,5.51,2.34,8.65,2.34,2.08,0,4.06-.35,5.92-1.04v.61c0,3.46-.68,6.17-2.02,8.06-1.18,1.67-2.57,2.44-4.38,2.44-.89,0-1.74-.23-2.59-.7-.83-.46-1.5-1.15-2.06-2.1-.55-.94-.83-2.2-.83-3.73s-.56-2.84-1.62-3.92c-1.07-1.09-2.44-1.67-3.97-1.67s-2.9.57-3.97,1.65c-1.08,1.08-1.65,2.44-1.65,3.94,0,5.03,1.72,9.39,5.14,13,3.38,3.15,7.27,4.74,11.55,4.74,4.81,0,9.01-1.95,12.51-5.83,3.38-4.07,5.09-9.41,5.09-15.89v-34.9c0-1.52-.56-2.89-1.63-3.96Z"/>
  <path class="cls-1" d="M76.83,25.41c-2.25-.69-4.39-.16-6.21,1.52-.49.45-.95.92-1.42,1.4-.38.38-.75.77-1.14,1.14-.65.62-1.32,1.22-1.99,1.8V5.9c0-3.25-2.65-5.9-5.9-5.9s-5.9,2.65-5.9,5.9v32.66c-6.24,2.55-12.71,3.3-19.26,2.24-2.71-.44-5.4-1.2-7.99-2.27V5.9c0-3.25-2.65-5.9-5.9-5.9s-5.9,2.65-5.9,5.9v25.27c-1.51-1.29-2.98-2.7-4.45-4.27-.73-.78-1.67-1.35-2.77-1.68-2.75-.83-5.6.24-7.11,2.68-1.23,1.98-1.4,5,.98,7.28.57.55,1.13,1.11,1.68,1.68.65.66,1.3,1.33,1.98,1.96,3.03,2.84,6.29,5.32,9.69,7.38v21.98c0,3.25,2.65,5.9,5.9,5.9s5.9-2.65,5.9-5.9v-16.66c4.41,1.35,8.95,2.04,13.5,2.06,4.17,0,8.01-.48,11.77-1.45.66-.17,1.33-.36,1.99-.56v16.62c0,3.25,2.65,5.9,5.9,5.9s5.9-2.65,5.9-5.9v-21.86c4.87-2.93,9.53-6.8,13.85-11.5,1.22-1.32,1.63-3.07,1.18-4.91-.56-2.26-2.04-3.81-4.27-4.5Z"/>
</svg>