<?xml version="1.0" encoding="UTF-8"?>
<svg id="Capa_1" data-name="Capa 1" xmlns="http://www.w3.org/2000/svg" viewBox="0 0 153 153">
  <defs>
    <style>
      .cls-1 {
        fill: #372eed;
      }

      .cls-1, .cls-2 {
        stroke-width: 0px;
      }

      .cls-2 {
        fill: #e0e1ef;
      }
    </style>
  </defs>
  <circle class="cls-1" cx="76.5" cy="76.5" r="76.5"/>
  <path class="cls-2" d="M112.9,64.44c-2.25-.69-4.39-.16-6.21,1.52-.49.45-.95.92-1.42,1.4-.38.38-.75.77-1.14,1.14-.65.62-1.32,1.22-1.99,1.8v-25.36c0-3.25-2.65-5.9-5.9-5.9s-5.9,2.65-5.9,5.9v32.66c-6.24,2.55-12.71,3.3-19.26,2.24-2.71-.44-5.4-1.2-7.99-2.27v-32.63c0-3.25-2.65-5.9-5.9-5.9s-5.9,2.65-5.9,5.9v25.27c-1.51-1.29-2.98-2.7-4.45-4.27-.73-.78-1.67-1.35-2.77-1.68-2.75-.83-5.6.24-7.11,2.68-1.23,1.98-1.4,5,.98,7.28.57.55,1.13,1.11,1.68,1.68.65.66,1.3,1.33,1.98,1.96,3.03,2.84,6.29,5.32,9.69,7.38v21.98c0,3.25,2.65,5.9,5.9,5.9s5.9-2.65,5.9-5.9v-16.66c4.41,1.35,8.95,2.04,13.5,2.06,4.17,0,8.01-.48,11.77-1.45.66-.17,1.33-.36,1.99-.56v16.62c0,3.25,2.65,5.9,5.9,5.9s5.9-2.65,5.9-5.9v-21.86c4.87-2.93,9.53-6.8,13.85-11.5,1.22-1.32,1.63-3.07,1.18-4.91-.56-2.26-2.04-3.81-4.27-4.5Z"/>
</svg>